<svg xmlns="http://www.w3.org/2000/svg" version="1.1" xmlns:xlink="http://www.w3.org/1999/xlink" width="1000" height="1000"><g clip-path="url(#SvgjsClipPath1003)"><rect width="1000" height="1000" fill="#ffffff"></rect><g transform="matrix(3.5,0,0,3.5,150,150)"><svg xmlns="http://www.w3.org/2000/svg" version="1.1" xmlns:xlink="http://www.w3.org/1999/xlink" width="200" height="200"><svg xmlns="http://www.w3.org/2000/svg" version="1.1" xmlns:xlink="http://www.w3.org/1999/xlink" viewBox="0 0 200 200"><rect width="200" height="200" fill="url('#gradient')"></rect><defs><linearGradient id="gradient" gradientTransform="rotate(45 0.5 0.5)"><stop offset="0%" stop-color="#ffffff"></stop><stop offset="100%" stop-color="#ffffff"></stop></linearGradient><clipPath id="SvgjsClipPath1003"><rect width="1000" height="1000" x="0" y="0" rx="350" ry="350"></rect></clipPath></defs><g><g fill="#f4a120" transform="matrix(1.8088321884200196,0,0,1.8088321884200196,8.056983052783437,113.38770163576315)" stroke="#f4a120" stroke-width="0.2"><path d="M9.89-8.57L9.89-6.03L4.50-6.03L4.50-2.64L10.87-2.64L10.87 0L1.07 0L1.07-14.22L10.89-14.22L10.89-11.57L4.50-11.57L4.50-8.57L9.89-8.57ZM11.51-5.36L11.51-5.36Q11.51-7.87 12.60-9.32Q13.68-10.76 15.63-10.76L15.63-10.76Q17.04-10.76 18.01-9.65L18.01-9.65L18.01-15L21.31-15L21.31 0L18.35 0L18.18-1.13Q17.17 0.20 15.61 0.20L15.61 0.20Q13.72 0.20 12.62-1.25Q11.51-2.70 11.51-5.36ZM14.81-5.76L14.80-5.16Q14.80-2.34 16.45-2.34L16.45-2.34Q17.54-2.34 18.01-3.26L18.01-3.26L18.01-7.29Q17.56-8.22 16.46-8.22L16.46-8.22Q14.94-8.22 14.81-5.76L14.81-5.76ZM29.57 0L29.47-1.14Q28.43 0.20 26.65 0.20L26.65 0.20Q24.91 0.20 24.02-0.82Q23.13-1.83 23.13-3.72L23.13-3.72L23.13-10.57L26.42-10.57L26.42-3.70Q26.42-2.34 27.73-2.34L27.73-2.34Q28.87-2.34 29.35-3.15L29.35-3.15L29.35-10.57L32.66-10.57L32.66 0L29.57 0ZM42.71-4.81L46.11-4.81Q46.04-3.33 45.31-2.19Q44.58-1.05 43.26-0.43Q41.93 0.20 40.23 0.20L40.23 0.20Q37.43 0.20 35.82-1.63Q34.21-3.46 34.21-6.79L34.21-6.79L34.21-7.49Q34.21-9.58 34.94-11.15Q35.66-12.71 37.03-13.57Q38.40-14.42 40.20-14.42L40.20-14.42Q42.78-14.42 44.36-13.06Q45.93-11.70 46.14-9.31L46.14-9.31L42.72-9.31Q42.69-10.61 42.07-11.17Q41.46-11.74 40.20-11.74L40.20-11.74Q38.92-11.74 38.32-10.78Q37.72-9.82 37.70-7.72L37.70-7.72L37.70-6.72Q37.70-4.44 38.27-3.47Q38.84-2.49 40.23-2.49L40.23-2.49Q41.42-2.49 42.04-3.05Q42.67-3.60 42.71-4.81L42.71-4.81ZM56.83 0L53.54 0Q53.36-0.32 53.22-0.95L53.22-0.95Q52.31 0.20 50.68 0.20L50.68 0.20Q49.19 0.20 48.14-0.71Q47.10-1.61 47.10-2.98L47.10-2.98Q47.10-4.70 48.37-5.58Q49.64-6.46 52.06-6.46L52.06-6.46L53.08-6.46L53.08-7.01Q53.08-8.47 51.82-8.47L51.82-8.47Q50.64-8.47 50.64-7.31L50.64-7.31L47.35-7.31Q47.35-8.85 48.66-9.80Q49.96-10.76 51.98-10.76Q54.00-10.76 55.18-9.78Q56.35-8.79 56.38-7.07L56.38-7.07L56.38-2.39Q56.40-0.94 56.83-0.17L56.83-0.17L56.83 0ZM51.47-2.15L51.47-2.15Q52.09-2.15 52.50-2.41Q52.90-2.68 53.08-3.01L53.08-3.01L53.08-4.70L52.12-4.70Q50.40-4.70 50.40-3.15L50.40-3.15Q50.40-2.71 50.70-2.43Q51.01-2.15 51.47-2.15ZM58.13-10.57L61.22-10.57L61.33-9.33Q62.42-10.76 64.35-10.76L64.35-10.76Q66.00-10.76 66.81-9.78Q67.63-8.79 67.66-6.81L67.66-6.81L67.66 0L64.36 0L64.36-6.67Q64.36-7.47 64.03-7.85Q63.71-8.22 62.86-8.22L62.86-8.22Q61.89-8.22 61.43-7.46L61.43-7.46L61.43 0L58.13 0L58.13-10.57ZM78.72 0L75.43 0Q75.25-0.32 75.12-0.95L75.12-0.95Q74.21 0.20 72.58 0.20L72.58 0.20Q71.08 0.20 70.04-0.71Q68.99-1.61 68.99-2.98L68.99-2.98Q68.99-4.70 70.26-5.58Q71.53-6.46 73.96-6.46L73.96-6.46L74.97-6.46L74.97-7.01Q74.97-8.47 73.71-8.47L73.71-8.47Q72.54-8.47 72.54-7.31L72.54-7.31L69.25-7.31Q69.25-8.85 70.55-9.80Q71.86-10.76 73.88-10.76Q75.90-10.76 77.07-9.78Q78.24-8.79 78.27-7.07L78.27-7.07L78.27-2.39Q78.29-0.94 78.72-0.17L78.72-0.17L78.72 0ZM73.37-2.15L73.37-2.15Q73.98-2.15 74.39-2.41Q74.79-2.68 74.97-3.01L74.97-3.01L74.97-4.70L74.01-4.70Q72.29-4.70 72.29-3.15L72.29-3.15Q72.29-2.71 72.60-2.43Q72.90-2.15 73.37-2.15ZM79.68-5.36L79.68-5.36Q79.68-7.87 80.76-9.32Q81.85-10.76 83.79-10.76L83.79-10.76Q85.21-10.76 86.17-9.65L86.17-9.65L86.17-15L89.47-15L89.47 0L86.51 0L86.35-1.13Q85.33 0.20 83.77 0.20L83.77 0.20Q81.88 0.20 80.78-1.25Q79.68-2.70 79.68-5.36ZM82.98-5.76L82.97-5.16Q82.97-2.34 84.61-2.34L84.61-2.34Q85.70-2.34 86.17-3.26L86.17-3.26L86.17-7.29Q85.72-8.22 84.63-8.22L84.63-8.22Q83.11-8.22 82.98-5.76L82.98-5.76ZM100.59 0L97.29 0Q97.12-0.32 96.98-0.95L96.98-0.95Q96.07 0.20 94.44 0.20L94.44 0.20Q92.95 0.20 91.90-0.71Q90.86-1.61 90.86-2.98L90.86-2.98Q90.86-4.70 92.13-5.58Q93.40-6.46 95.82-6.46L95.82-6.46L96.84-6.46L96.84-7.01Q96.84-8.47 95.58-8.47L95.58-8.47Q94.40-8.47 94.40-7.31L94.40-7.31L91.11-7.31Q91.11-8.85 92.42-9.80Q93.72-10.76 95.74-10.76Q97.76-10.76 98.94-9.78Q100.11-8.79 100.14-7.07L100.14-7.07L100.14-2.39Q100.16-0.94 100.59-0.17L100.59-0.17L100.59 0ZM95.23-2.15L95.23-2.15Q95.85-2.15 96.25-2.41Q96.66-2.68 96.84-3.01L96.84-3.01L96.84-4.70L95.88-4.70Q94.16-4.70 94.16-3.15L94.16-3.15Q94.16-2.71 94.46-2.43Q94.77-2.15 95.23-2.15Z"></path></g></g></svg></svg></g></g></svg>